<svg data-v-6cd20b81="" width="18" height="18" viewBox="0 0 18 18" fill="none" xmlns="http://www.w3.org/2000/svg"
  class="">
  <path data-v-6cd20b81="" fill-rule="evenodd" clip-rule="evenodd"
    d="M12.1872 11.4713H12.9772L17.2172 15.7313C17.6272 16.1413 17.6272 16.8113 17.2172 17.2213C16.8072 17.6313 16.1372 17.6313 15.7272 17.2213L11.4772 12.9713V12.1813L11.2072 11.9013C9.80719 13.1013 7.89719 13.7213 5.86719 13.3813C3.08719 12.9113 0.867188 10.5913 0.527188 7.79133C0.00718811 3.56133 3.56719 0.00132874 7.79719 0.521329C10.5972 0.861329 12.9172 3.08133 13.3872 5.86133C13.7272 7.89133 13.1072 9.80133 11.9072 11.2013L12.1872 11.4713ZM2.47719 6.97133C2.47719 9.46133 4.48719 11.4713 6.97719 11.4713C9.46719 11.4713 11.4772 9.46133 11.4772 6.97133C11.4772 4.48133 9.46719 2.47133 6.97719 2.47133C4.48719 2.47133 2.47719 4.48133 2.47719 6.97133Z"
    fill="white"></path>
</svg>